<?xml version="1.0" encoding="utf-8"?>
<!-- Generator: Adobe Illustrator 22.0.1, SVG Export Plug-In . SVG Version: 6.00 Build 0)  -->
<svg version="1.1" id="Layer_1" xmlns="http://www.w3.org/2000/svg" xmlns:xlink="http://www.w3.org/1999/xlink" x="0px" y="0px"
	 viewBox="0 0 512 512" style="enable-background:new 0 0 512 512;" xml:space="preserve">
<g id="XMLID_137_">
	<circle id="XMLID_1_" style="fill:#FD620E;" cx="153.637" cy="128.03" r="127.97"/>
	<circle id="XMLID_2_" style="fill:#FD620E;" cx="50.352" cy="133.227" r="50.019"/>
	<circle id="XMLID_3_" style="fill:#FFFFFF;" cx="50.646" cy="135.591" r="36.673"/>
	<circle id="XMLID_4_" cx="49.702" cy="137.557" r="21.437"/>
	<ellipse id="XMLID_5_" style="fill:#FFFFFF;" cx="56.307" cy="130.637" rx="5.955" ry="6.92"/>
	<circle id="XMLID_9_" style="fill:#FD620E;" cx="256.057" cy="130.637" r="50.019"/>
	<circle id="XMLID_8_" style="fill:#FFFFFF;" cx="256.351" cy="133.001" r="36.673"/>
	<circle id="XMLID_7_" cx="255.407" cy="134.968" r="21.437"/>
	<ellipse id="XMLID_6_" style="fill:#FFFFFF;" cx="262.011" cy="128.048" rx="5.955" ry="6.92"/>
	<path id="XMLID_10_" style="fill:#C92802;" d="M61.449,90.796c-11.54,0-20.895-4.556-20.895-10.177
		c0-3.43,7.016-10.177,22.194-10.177C101.696,70.442,72.989,90.796,61.449,90.796z"/>
	<path id="XMLID_11_" style="fill:#C92802;" d="M246.367,70.018c-11.54,0-20.895,4.556-20.895,10.177
		c0,3.43,7.016,10.177,22.194,10.177C286.614,90.371,257.907,70.018,246.367,70.018z"/>
	<path id="XMLID_12_" style="fill:#C92802;" d="M229.153,191.251c0,11.66-33.809,30.531-75.515,30.531s-75.515-18.871-75.515-30.531
		s33.809-7.146,75.515-7.146S229.153,179.591,229.153,191.251z"/>
	<path id="XMLID_13_" style="fill:#FFFFFF;" d="M219.678,190.716c0,11.66-24.334,15.915-66.04,15.915s-66.318-4.905-66.318-16.565
		s24.612-5.961,66.318-5.961S219.678,179.056,219.678,190.716z"/>
</g>
<g id="XMLID_136_">
	<circle id="XMLID_26_" style="fill:#00993F;" cx="349.079" cy="383.224" r="126.776"/>
	<g id="XMLID_36_">
		<circle id="XMLID_21_" style="fill:#00993F;" cx="447.111" cy="353.621" r="49.552"/>
		<circle id="XMLID_20_" style="fill:#FFFFFF;" cx="447.402" cy="355.963" r="36.331"/>
	</g>
	<g id="XMLID_35_">
		<circle id="XMLID_25_" style="fill:#00993F;" cx="244.183" cy="353.621" r="49.552"/>
		<circle id="XMLID_24_" style="fill:#FFFFFF;" cx="244.474" cy="355.963" r="36.331"/>
		<ellipse id="XMLID_23_" cx="248.443" cy="371.543" rx="24.055" ry="7.605"/>
		<ellipse id="XMLID_22_" style="fill:#FFFFFF;" cx="258.077" cy="369.524" rx="5.069" ry="3.013"/>
	</g>
	<g id="XMLID_37_">
		<path id="XMLID_15_" style="fill:#006B34;" d="M423.89,461.08c0-14.645-33.494-59.115-74.811-59.115s-74.811,44.47-74.811,59.115
			s33.494,8.975,74.811,8.975S423.89,475.724,423.89,461.08z"/>
		<path id="XMLID_16_" style="fill:#FF6868;" d="M417.508,468.221c0-3.816-24.245-10.269-65.562-10.269s-65.562,6.665-65.562,10.481
			s24.383,1.951,65.7,1.951S417.508,472.037,417.508,468.221z"/>
	</g>
	<g id="XMLID_29_">
		<circle id="XMLID_18_" style="fill:#00993F;" cx="224.876" cy="457.523" r="32.177"/>
		<circle id="XMLID_19_" style="fill:#00993F;" cx="198.492" cy="484.552" r="12.227"/>
		<circle id="XMLID_27_" style="fill:#00993F;" cx="221.015" cy="492.274" r="12.227"/>
		<circle id="XMLID_28_" style="fill:#00993F;" cx="244.474" cy="489.7" r="12.227"/>
	</g>
	<g id="XMLID_30_">
		<circle id="XMLID_34_" style="fill:#00993F;" cx="479.073" cy="451.41" r="32.177"/>
		<circle id="XMLID_33_" style="fill:#00993F;" cx="452.688" cy="478.438" r="12.227"/>
		<circle id="XMLID_32_" style="fill:#00993F;" cx="475.212" cy="486.16" r="12.227"/>
		<circle id="XMLID_31_" style="fill:#00993F;" cx="498.67" cy="483.586" r="12.227"/>
	</g>
	<ellipse id="XMLID_17_" cx="444.078" cy="371.543" rx="24.055" ry="7.605"/>
	<ellipse id="XMLID_14_" style="fill:#FFFFFF;" cx="436.979" cy="369.524" rx="5.069" ry="3.013"/>
</g>
<g>
</g>
<g>
</g>
<g>
</g>
<g>
</g>
<g>
</g>
</svg>
