<?xml version="1.0" encoding="utf-8"?>
<!-- Generator: Adobe Illustrator 22.0.1, SVG Export Plug-In . SVG Version: 6.00 Build 0)  -->
<svg version="1.1" id="Layer_1" xmlns="http://www.w3.org/2000/svg" xmlns:xlink="http://www.w3.org/1999/xlink" x="0px" y="0px"
	 viewBox="0 0 512 512" style="enable-background:new 0 0 512 512;" xml:space="preserve">
<g id="XMLID_135_">
	<rect id="XMLID_38_" x="2" y="2.635" style="fill:#986432;" width="250" height="250"/>
	<rect id="XMLID_39_" x="2" y="2.635" style="fill:#64A032;" width="250" height="54.424"/>
	<path id="XMLID_41_" style="fill:#B27C50;" d="M77.4,121.202H61.188H38.204c-8.491,0-15.438-6.947-15.438-15.438v-11.79
		c0-8.491,6.947-15.438,15.438-15.438H77.4c8.491,0,22.212,5.017,22.212,13.508C99.611,92.045,85.89,121.202,77.4,121.202z"/>
	<path id="XMLID_40_" style="fill:#987832;" d="M77.4,222.622H38.204c-8.491,0-15.438-6.947-15.438-15.438v-41.167
		c0-8.491,6.947-15.438,15.438-15.438c0,0,54.634,6.947,54.634,15.438v41.167C92.837,215.675,85.89,222.622,77.4,222.622z"/>
	<path id="XMLID_42_" style="fill:#D27C3C;" d="M160.719,176.309l-49.488-2.646c-8.491,0-11.62-10.09-11.62-18.581l-3.818-27.526
		c0-8.491,6.947-15.438,15.438-15.438l41.126-6.566c8.491,0,26.466,13.513,26.466,22.003l7.626,30.742
		C186.449,166.789,169.21,176.309,160.719,176.309z"/>
	<path id="XMLID_43_" style="fill:#E29054;" d="M225.473,241.919H125.341c-8.491,0-15.438-6.947-15.438-15.438l13.508-30.875
		c0-8.491,102.061-15.282,102.061-15.282c8.491,0,15.438,6.947,15.438,15.438v30.72C240.91,234.972,233.963,241.919,225.473,241.919
		z"/>
	<path id="XMLID_44_" style="fill:#A89046;" d="M225.473,133.408h-21.281c-8.491,0-11.914-2.84-17.743-12.206l-15.438-39.449
		c0-8.491,24.69-15.141,33.18-15.141h21.281c8.491,0,15.438,6.947,15.438,15.438v35.921
		C240.91,126.461,233.963,133.408,225.473,133.408z"/>
	<polygon id="XMLID_45_" style="fill:#64A032;" points="42.363,78.537 27.368,124.547 19.85,78.537 28.1,32.527 	"/>
	<polygon id="XMLID_46_" style="fill:#64A032;" points="60.386,57.84 78.328,94.259 42.446,78.382 21.081,47.97 	"/>
</g>
<g id="XMLID_134_">
	<rect id="XMLID_47_" x="260.805" y="260.827" style="fill:#BDA430;" width="249.91" height="249.91"/>
	
		<rect id="XMLID_48_" x="292.312" y="293.316" style="fill:none;stroke:#AF8533;stroke-width:10;stroke-miterlimit:10;" width="187.097" height="187.097"/>
	
		<rect id="XMLID_49_" x="292.311" y="355.595" style="fill:none;stroke:#AF8533;stroke-width:10;stroke-miterlimit:10;" width="187.097" height="68.233"/>
	<rect id="XMLID_50_" x="264.325" y="263.399" style="fill:#CEBA63;" width="243.074" height="12.217"/>
	<rect id="XMLID_51_" x="299.035" y="300.05" style="fill:#CEBA63;" width="174.024" height="12.217"/>
	<rect id="XMLID_52_" x="299.012" y="361.458" style="fill:#CEBA63;" width="174.024" height="12.217"/>
	<rect id="XMLID_53_" x="298.988" y="430.259" style="fill:#CEBA63;" width="174.024" height="12.217"/>
	<rect id="XMLID_54_" x="288.94" y="487.058" style="fill:#CEBA63;" width="194.077" height="12.217"/>
	<g id="XMLID_55_">
		<circle id="XMLID_56_" style="fill:#ADA78C;" cx="276.669" cy="280.929" r="12.348"/>
		<circle id="XMLID_57_" style="fill:#D6D1BA;" cx="274.606" cy="275.909" r="4.109"/>
	</g>
	<g id="XMLID_58_">
		<circle id="XMLID_60_" style="fill:#ADA78C;" cx="495.442" cy="281.008" r="12.348"/>
		<circle id="XMLID_59_" style="fill:#D6D1BA;" cx="493.379" cy="275.988" r="4.109"/>
	</g>
	<g id="XMLID_64_">
		<circle id="XMLID_66_" style="fill:#ADA78C;" cx="276.592" cy="493.127" r="12.348"/>
		<circle id="XMLID_65_" style="fill:#D6D1BA;" cx="274.529" cy="488.108" r="4.109"/>
	</g>
	<g id="XMLID_61_">
		<circle id="XMLID_63_" style="fill:#ADA78C;" cx="495.365" cy="493.206" r="12.348"/>
		<circle id="XMLID_62_" style="fill:#D6D1BA;" cx="493.302" cy="488.187" r="4.109"/>
	</g>
</g>
<g>
</g>
<g>
</g>
<g>
</g>
<g>
</g>
<g>
</g>
</svg>
