<?xml version="1.0" encoding="utf-8"?>
<!-- Generator: Adobe Illustrator 22.0.1, SVG Export Plug-In . SVG Version: 6.00 Build 0)  -->
<svg version="1.1" id="Layer_1" xmlns="http://www.w3.org/2000/svg" xmlns:xlink="http://www.w3.org/1999/xlink" x="0px" y="0px"
	 viewBox="0 0 512 512" style="enable-background:new 0 0 512 512;" xml:space="preserve">
<g id="XMLID_133_">
	<path id="XMLID_72_" style="fill:#986434;" d="M178.821,68.683c-60.583,0-109.696,49.113-109.696,109.696
		c0,60.583,49.113,109.696,109.696,109.696c60.583,0,109.696-49.113,109.696-109.696C288.517,117.796,239.405,68.683,178.821,68.683
		z M178,273.474c-52.52,0-95.095-42.576-95.095-95.095c0-52.52,42.576-95.095,95.095-95.095c52.52,0,95.095,42.576,95.095,95.095
		C273.095,230.899,230.52,273.474,178,273.474z"/>
	<path id="XMLID_67_" style="fill:#C4994D;" d="M179.71,53.483c-68.952,0-124.849,55.897-124.849,124.849
		c0,68.952,55.897,124.849,124.849,124.849s124.849-55.897,124.849-124.849C304.559,109.38,248.662,53.483,179.71,53.483z
		 M178.775,286.564c-59.774,0-108.231-48.457-108.231-108.231c0-59.774,48.457-108.231,108.231-108.231
		c59.774,0,108.231,48.457,108.231,108.231C287.006,238.107,238.55,286.564,178.775,286.564z"/>
	<rect id="XMLID_73_" x="167.437" y="70.69" style="fill:#986434;" width="22.067" height="215.345"/>
	
		<rect id="XMLID_74_" x="167.309" y="74.547" transform="matrix(-0.0017 -1 1 -0.0017 0.2702 357.032)" style="fill:#986434;" width="22.067" height="207.669"/>
	
		<rect id="XMLID_75_" x="75.875" y="167.299" transform="matrix(0.7059 -0.7083 0.7083 0.7059 -73.4623 179.7439)" style="fill:#986434;" width="207.669" height="22.067"/>
	
		<rect id="XMLID_76_" x="166.967" y="74.498" transform="matrix(0.7059 -0.7083 0.7083 0.7059 -73.965 178.5332)" style="fill:#986434;" width="22.067" height="207.669"/>
	<path id="XMLID_77_" style="fill:#C4994D;" d="M178.405,146.707c-16.589,0-30.038,13.448-30.038,30.038
		s13.448,30.038,30.038,30.038c16.589,0,30.038-13.448,30.038-30.038S194.994,146.707,178.405,146.707z M178.18,202.784
		c-14.381,0-26.039-11.658-26.039-26.039c0-14.381,11.658-26.039,26.039-26.039c14.381,0,26.039,11.658,26.039,26.039
		C204.219,191.126,192.561,202.784,178.18,202.784z"/>
	<circle id="XMLID_80_" style="fill:#C4994D;" cx="178.47" cy="177.406" r="12.946"/>
	<polygon id="XMLID_81_" style="fill:#C4994D;" points="185.521,54.459 170.89,54.459 167.437,5.202 178.47,2.276 189.504,5.202 	
		"/>
	<polygon id="XMLID_83_" style="fill:#C4994D;" points="171.42,300.093 186.051,300.093 189.504,349.35 178.47,352.276 
		167.437,349.35 	"/>
	<polygon id="XMLID_85_" style="fill:#C4994D;" points="56.893,170.572 56.893,185.202 7.636,188.655 4.71,177.622 7.636,166.589 	
		"/>
	<polygon id="XMLID_84_" style="fill:#C4994D;" points="302.527,184.672 302.527,170.042 351.783,166.589 354.71,177.622 
		351.783,188.655 	"/>
	<polygon id="XMLID_87_" style="fill:#C4994D;" points="87.146,259.265 97.491,269.61 65.103,306.882 55.232,301.149 
		49.499,291.279 	"/>
	<polygon id="XMLID_86_" style="fill:#C4994D;" points="269.83,95.546 259.485,85.201 291.873,47.929 301.744,53.662 
		307.477,63.533 	"/>
	<polygon id="XMLID_89_" style="fill:#C4994D;" points="97.85,86.551 87.505,96.896 50.233,64.508 55.966,54.637 65.837,48.905 	"/>
	<polygon id="XMLID_88_" style="fill:#C4994D;" points="261.569,270.211 271.914,259.866 309.186,292.254 303.453,302.125 
		293.582,307.857 	"/>
</g>
<g id="XMLID_106_">
	<g id="XMLID_105_">
		<path id="XMLID_96_" d="M404.276,311.368c-52.866,0-95.722,42.856-95.722,95.722c0,52.866,42.856,95.722,95.722,95.722
			s95.722-42.856,95.722-95.722C499.998,354.224,457.142,311.368,404.276,311.368z M404.276,476.01
			c-38.064,0-68.92-30.857-68.92-68.92c0-38.064,30.857-68.92,68.92-68.92s68.92,30.857,68.92,68.92
			C473.196,445.153,442.34,476.01,404.276,476.01z"/>
	</g>
	<path id="XMLID_90_" style="fill:#666666;" d="M404.276,335.118c-39.749,0-71.972,32.223-71.972,71.972
		s32.223,71.972,71.972,71.972s71.972-32.223,71.972-71.972S444.025,335.118,404.276,335.118z M404.276,458.909
		c-28.619,0-51.82-23.2-51.82-51.82c0-28.619,23.2-51.82,51.82-51.82c28.619,0,51.82,23.2,51.82,51.82
		C456.096,435.709,432.895,458.909,404.276,458.909z"/>
	<path id="XMLID_95_" style="fill:#B3B3B3;" d="M404.276,338.217c-38.037,0-68.872,30.835-68.872,68.872
		s30.835,68.872,68.872,68.872s68.872-30.835,68.872-68.872S442.313,338.217,404.276,338.217z M404.276,456.678
		c-27.387,0-49.588-22.201-49.588-49.588c0-27.387,22.201-49.588,49.588-49.588c27.387,0,49.588,22.201,49.588,49.588
		C453.864,434.477,431.663,456.678,404.276,456.678z"/>
	<path id="XMLID_99_" style="fill:#B3B3B3;" d="M414.695,368.517c0,13.336-4.816,41.928-11.417,41.928s-11.953-27.529-11.953-40.865
		c0-13.336,5.351-18.044,11.953-18.044S414.695,355.181,414.695,368.517z"/>
	<path id="XMLID_100_" style="fill:#B3B3B3;" d="M369.179,386.162c12.684,4.121,38.387,17.537,36.347,23.815
		c-2.04,6.278-29.875,2.861-42.559-1.26s-15.507-10.665-13.468-16.944C351.54,385.494,356.495,382.04,369.179,386.162z"/>
	<path id="XMLID_102_" style="fill:#B3B3B3;" d="M371.492,434.76c7.839-10.789,28.541-31.089,33.881-27.209
		c5.341,3.88-6.511,29.297-14.35,40.086c-7.839,10.789-14.936,11.453-20.276,7.573C365.406,451.329,363.653,445.549,371.492,434.76z
		"/>
	<path id="XMLID_101_" style="fill:#B3B3B3;" d="M418.686,447.238c-7.839-10.789-20.748-36.751-15.407-40.631
		c5.341-3.88,25.851,15.246,33.69,26.035s6.277,17.744,0.936,21.624C432.565,458.146,426.525,458.028,418.686,447.238z"/>
	<path id="XMLID_103_" style="fill:#B3B3B3;" d="M445.914,407.478c-12.684,4.121-41.364,8.376-43.404,2.098
		c-2.04-6.278,22.488-19.875,35.171-23.996s18.815-0.487,20.855,5.792C460.576,397.65,458.597,403.357,445.914,407.478z"/>
	<circle id="XMLID_104_" style="fill:#E6E6E6;" cx="403.714" cy="407.09" r="19.748"/>
</g>
<g>
</g>
<g>
</g>
<g>
</g>
<g>
</g>
<g>
</g>
</svg>
