<?xml version="1.0" encoding="utf-8"?>
<!-- Generator: Adobe Illustrator 22.0.1, SVG Export Plug-In . SVG Version: 6.00 Build 0)  -->
<svg version="1.1" id="Layer_1" xmlns="http://www.w3.org/2000/svg" xmlns:xlink="http://www.w3.org/1999/xlink" x="0px" y="0px"
	 viewBox="0 0 512 512" style="enable-background:new 0 0 512 512;" xml:space="preserve">
<linearGradient id="XMLID_170_" gradientUnits="userSpaceOnUse" x1="258.6285" y1="34.3334" x2="676.7047" y2="34.3334" gradientTransform="matrix(4.489700e-11 1 -1 4.489700e-11 290.3333 -211.6667)">
	<stop  offset="0" style="stop-color:#26CDFD"/>
	<stop  offset="1" style="stop-color:#197C8C"/>
</linearGradient>
<polygon id="XMLID_1_" style="fill:url(#XMLID_170_);" points="0,465.038 0,46.962 512,46.962 512,465.038 "/>
<linearGradient id="XMLID_171_" gradientUnits="userSpaceOnUse" x1="517.9873" y1="34.3334" x2="676.7047" y2="34.3334" gradientTransform="matrix(4.489700e-11 1 -1 4.489700e-11 290.3333 -211.6667)">
	<stop  offset="0" style="stop-color:#C8CDA4"/>
	<stop  offset="1" style="stop-color:#89680B"/>
</linearGradient>
<path id="XMLID_2_" style="fill:url(#XMLID_171_);" d="M0,465.038l0-123.837c0,0,93.719-49.165,134.454-30.754
	c152.64,68.987,180.013,67.32,229.255,46.356C489.507,303.245,512,334.051,512,334.051v130.987H0z"/>
<linearGradient id="XMLID_172_" gradientUnits="userSpaceOnUse" x1="571.0953" y1="30.2552" x2="676.7047" y2="30.2552" gradientTransform="matrix(-8.979300e-11 1 1 8.979300e-11 225.7448 -211.6667)">
	<stop  offset="0.1195" style="stop-color:#C8CDA4"/>
	<stop  offset="1" style="stop-color:#89680B"/>
</linearGradient>
<path id="XMLID_3_" style="fill:url(#XMLID_172_);" d="M512,465.038v-82.4c0,0-93.719-32.714-134.454-20.464
	c-152.64,45.903-180.013,44.794-229.255,30.845C22.493,357.382,0,377.88,0,377.88l0,87.158H512z"/>
<linearGradient id="XMLID_173_" gradientUnits="userSpaceOnUse" x1="611.3735" y1="34.3333" x2="676.7048" y2="34.3333" gradientTransform="matrix(4.489700e-11 1 -1 4.489700e-11 290.3333 -211.6667)">
	<stop  offset="0.1979" style="stop-color:#C8CDA4"/>
	<stop  offset="1" style="stop-color:#89680B"/>
</linearGradient>
<path id="XMLID_4_" style="fill:url(#XMLID_173_);" d="M0,465.038l0-50.974c0,0,93.719-20.237,134.454-12.659
	c152.64,28.396,180.013,27.71,229.255,19.081C489.507,398.441,512,411.121,512,411.121v53.917H0z"/>
<path id="XMLID_44_" style="fill:#FDCC29;" d="M122.603,395.123c-0.427-1.083-5.812-1.055-11.098-0.276
	c0.841-2.897,0.423-5.408-0.781-6.763c-0.74-0.833-5.394,0.85-9.91,3.229c-0.022-3.525-1.413-6.126-3.2-7.049
	c-1.122-0.58-5.769,3.657-9.398,8.127c-4.794-4.227-14.515-9.245-15.701-8.056c-1.454,1.459-1.976,4.467-0.816,7.935
	c-4.878-1.004-9.609-1.319-10.083-0.337c-0.763,1.579-0.52,3.997,0.943,6.469c-3.44-0.475-6.224-0.473-6.583,0.268
	c-1.14,2.357-0.05,6.587,4.023,10.07c2.444,2.09,6.934-0.709,10.567,1.048c0.516,0.25,4.881,3.913,8.643,6.142
	c0.275,0.786,0.749,1.377,1.448,1.739c0.955,0.493,2.128,0.449,3.427-0.046c2.759-0.075,4.755-0.861,5.499-2.4
	c0.24-0.497,0.32-1.018,0.262-1.558c0.725-0.33,1.568-0.998,2.452-1.853c0.472,0.078,0.971,0.135,1.499,0.169
	c0.283,0.018,0.609-0.016,0.964-0.087c1.763,0.265,3.191-0.013,4.094-0.918c0.316-0.317,0.534-0.685,0.673-1.094
	c3.553-1.949,7.227-4.572,7.698-4.758c3.754-1.481,8.023,1.646,10.616-0.257C122.162,401.695,123.564,397.559,122.603,395.123z"/>
<linearGradient id="XMLID_174_" gradientUnits="userSpaceOnUse" x1="261.3249" y1="465.038" x2="261.3249" y2="46.9619">
	<stop  offset="0" style="stop-color:#26CDFD;stop-opacity:0.5"/>
	<stop  offset="0" style="stop-color:#2ECFFD;stop-opacity:0"/>
	<stop  offset="1" style="stop-color:#B6FFFD;stop-opacity:0.6"/>
</linearGradient>
<polygon id="XMLID_5_" style="fill:url(#XMLID_174_);" points="349.571,465.038 173.079,463.088 231.585,46.962 291.065,46.962 "/>
<g id="XMLID_20_">
	<path id="XMLID_23_" style="opacity:0.5;fill:#FFFFFF;" d="M67.897,212.545c-5.555,0-10.059,4.503-10.059,10.059
		c0,5.555,4.503,10.059,10.059,10.059s10.059-4.503,10.059-10.059C77.955,217.048,73.452,212.545,67.897,212.545z M67.993,230.921
		c-4.54,0-8.221-3.681-8.221-8.221c0-4.54,3.681-8.221,8.221-8.221s8.221,3.681,8.221,8.221
		C76.214,227.241,72.534,230.921,67.993,230.921z"/>
	<path id="XMLID_27_" style="opacity:0.5;fill:#FFFFFF;" d="M67.993,214.479c-4.54,0-8.221,3.681-8.221,8.221
		c0,4.54,3.681,8.221,8.221,8.221s8.221-3.681,8.221-8.221C76.214,218.16,72.534,214.479,67.993,214.479z M66.911,225.989
		c-2.628,0-4.758-2.13-4.758-4.758s2.13-4.758,4.758-4.758c2.628,0,4.758,2.13,4.758,4.758S69.538,225.989,66.911,225.989z"/>
	<path id="XMLID_26_" style="opacity:0.5;fill:#FFFFFF;" d="M67.993,214.479c-4.54,0-8.221,3.681-8.221,8.221
		c0,4.54,3.681,8.221,8.221,8.221s8.221-3.681,8.221-8.221C76.214,218.16,72.534,214.479,67.993,214.479z M66.911,225.989
		c-2.628,0-4.758-2.13-4.758-4.758s2.13-4.758,4.758-4.758c2.628,0,4.758,2.13,4.758,4.758S69.538,225.989,66.911,225.989z"/>
	<path id="XMLID_36_" style="opacity:0.5;fill:#FFFFFF;" d="M66.911,216.473c-2.628,0-4.758,2.13-4.758,4.758
		s2.13,4.758,4.758,4.758c2.628,0,4.758-2.13,4.758-4.758S69.538,216.473,66.911,216.473z M66.956,225.165
		c-2.148,0-3.889-1.741-3.889-3.889c0-2.148,1.741-3.889,3.889-3.889c2.148,0,3.889,1.741,3.889,3.889
		C70.845,223.424,69.104,225.165,66.956,225.165z"/>
	<path id="XMLID_33_" style="opacity:0.5;fill:#FFFFFF;" d="M66.911,216.473c-2.628,0-4.758,2.13-4.758,4.758
		s2.13,4.758,4.758,4.758c2.628,0,4.758-2.13,4.758-4.758S69.538,216.473,66.911,216.473z M66.956,225.165
		c-2.148,0-3.889-1.741-3.889-3.889c0-2.148,1.741-3.889,3.889-3.889c2.148,0,3.889,1.741,3.889,3.889
		C70.845,223.424,69.104,225.165,66.956,225.165z"/>
	<path id="XMLID_32_" style="opacity:0.5;fill:#FFFFFF;" d="M66.911,216.473c-2.628,0-4.758,2.13-4.758,4.758
		s2.13,4.758,4.758,4.758c2.628,0,4.758-2.13,4.758-4.758S69.538,216.473,66.911,216.473z M66.956,225.165
		c-2.148,0-3.889-1.741-3.889-3.889c0-2.148,1.741-3.889,3.889-3.889c2.148,0,3.889,1.741,3.889,3.889
		C70.845,223.424,69.104,225.165,66.956,225.165z"/>
	<circle id="XMLID_42_" style="opacity:0.5;fill:#FFFFFF;" cx="66.956" cy="221.277" r="3.889"/>
	<circle id="XMLID_41_" style="opacity:0.5;fill:#FFFFFF;" cx="66.956" cy="221.277" r="3.889"/>
	<circle id="XMLID_40_" style="opacity:0.5;fill:#FFFFFF;" cx="66.956" cy="221.277" r="3.889"/>
	<circle id="XMLID_39_" style="opacity:0.5;fill:#FFFFFF;" cx="66.956" cy="221.277" r="3.889"/>
</g>
<linearGradient id="XMLID_175_" gradientUnits="userSpaceOnUse" x1="90.7856" y1="392.5751" x2="90.7856" y2="440.3088">
	<stop  offset="0" style="stop-color:#26CDFD;stop-opacity:0.5"/>
	<stop  offset="0" style="stop-color:#2ECFFD;stop-opacity:0"/>
	<stop  offset="0" style="stop-color:#FDC829"/>
	<stop  offset="0" style="stop-color:#FDC52C"/>
	<stop  offset="1" style="stop-color:#FF6F34"/>
</linearGradient>
<path id="XMLID_15_" style="fill:url(#XMLID_175_);" d="M124.168,403.541c-0.427-1.083-5.812-1.055-11.098-0.276
	c0.841-2.897,0.423-5.408-0.781-6.763c-0.74-0.833-5.394,0.85-9.91,3.229c-0.022-3.525-1.413-6.126-3.2-7.049
	c-1.122-0.58-5.769,3.657-9.398,8.127c-4.794-4.227-14.515-9.245-15.701-8.056c-1.454,1.459-1.976,4.467-0.816,7.935
	c-4.878-1.004-9.609-1.319-10.083-0.337c-0.763,1.579-0.52,3.997,0.943,6.469c-3.44-0.475-6.224-0.473-6.583,0.268
	c-1.14,2.357-0.05,6.587,4.023,10.07c2.132,1.823,5.821-0.073,9.14,0.579c-3.001,5.493-7.948,18.293-7.948,18.293
	c0,2.353,1.925,4.279,4.279,4.279h42.073c2.353,0,4.279-1.925,4.279-4.279c0.951-7.607-3.744-20.324-3.744-20.324
	s0.863-1.197,1.681-2.578c3.021,0.064,6.061,1.637,8.083,0.154C123.727,410.113,125.129,405.976,124.168,403.541z"/>
<g id="XMLID_6_">
	<path id="XMLID_52_" style="opacity:0.5;fill:#FFFFFF;" d="M102.782,352.985c-1.779,0-3.222,1.442-3.222,3.222
		s1.442,3.222,3.222,3.222s3.222-1.442,3.222-3.222S104.561,352.985,102.782,352.985z M102.813,358.871
		c-1.454,0-2.633-1.179-2.633-2.633s1.179-2.633,2.633-2.633c1.454,0,2.633,1.179,2.633,2.633S104.267,358.871,102.813,358.871z"/>
	<path id="XMLID_49_" style="opacity:0.5;fill:#FFFFFF;" d="M102.813,353.604c-1.454,0-2.633,1.179-2.633,2.633
		s1.179,2.633,2.633,2.633c1.454,0,2.633-1.179,2.633-2.633S104.267,353.604,102.813,353.604z M102.466,357.291
		c-0.842,0-1.524-0.682-1.524-1.524s0.682-1.524,1.524-1.524s1.524,0.682,1.524,1.524S103.308,357.291,102.466,357.291z"/>
	<path id="XMLID_46_" style="opacity:0.5;fill:#FFFFFF;" d="M102.813,353.604c-1.454,0-2.633,1.179-2.633,2.633
		s1.179,2.633,2.633,2.633c1.454,0,2.633-1.179,2.633-2.633S104.267,353.604,102.813,353.604z M102.466,357.291
		c-0.842,0-1.524-0.682-1.524-1.524s0.682-1.524,1.524-1.524s1.524,0.682,1.524,1.524S103.308,357.291,102.466,357.291z"/>
	<path id="XMLID_19_" style="opacity:0.5;fill:#FFFFFF;" d="M102.466,354.243c-0.842,0-1.524,0.682-1.524,1.524
		s0.682,1.524,1.524,1.524s1.524-0.682,1.524-1.524S103.308,354.243,102.466,354.243z M102.481,357.027
		c-0.688,0-1.246-0.558-1.246-1.246s0.558-1.246,1.246-1.246c0.688,0,1.246,0.558,1.246,1.246S103.169,357.027,102.481,357.027z"/>
	<path id="XMLID_16_" style="opacity:0.5;fill:#FFFFFF;" d="M102.466,354.243c-0.842,0-1.524,0.682-1.524,1.524
		s0.682,1.524,1.524,1.524s1.524-0.682,1.524-1.524S103.308,354.243,102.466,354.243z M102.481,357.027
		c-0.688,0-1.246-0.558-1.246-1.246s0.558-1.246,1.246-1.246c0.688,0,1.246,0.558,1.246,1.246S103.169,357.027,102.481,357.027z"/>
	<path id="XMLID_12_" style="opacity:0.5;fill:#FFFFFF;" d="M102.466,354.243c-0.842,0-1.524,0.682-1.524,1.524
		s0.682,1.524,1.524,1.524s1.524-0.682,1.524-1.524S103.308,354.243,102.466,354.243z M102.481,357.027
		c-0.688,0-1.246-0.558-1.246-1.246s0.558-1.246,1.246-1.246c0.688,0,1.246,0.558,1.246,1.246S103.169,357.027,102.481,357.027z"/>
	<circle id="XMLID_11_" style="opacity:0.5;fill:#FFFFFF;" cx="102.481" cy="355.782" r="1.246"/>
	<circle id="XMLID_10_" style="opacity:0.5;fill:#FFFFFF;" cx="102.481" cy="355.782" r="1.246"/>
	<circle id="XMLID_9_" style="opacity:0.5;fill:#FFFFFF;" cx="102.481" cy="355.782" r="1.246"/>
	<circle id="XMLID_8_" style="opacity:0.5;fill:#FFFFFF;" cx="102.481" cy="355.782" r="1.246"/>
</g>
<g id="XMLID_55_">
	<path id="XMLID_75_" style="opacity:0.5;fill:#FFFFFF;" d="M85.822,359.429c-3.691,0-6.683,2.992-6.683,6.683
		c0,3.691,2.992,6.683,6.683,6.683s6.683-2.992,6.683-6.683C92.505,362.421,89.513,359.429,85.822,359.429z M85.886,371.638
		c-3.017,0-5.462-2.445-5.462-5.462s2.445-5.462,5.462-5.462s5.462,2.445,5.462,5.462S88.903,371.638,85.886,371.638z"/>
	<path id="XMLID_72_" style="opacity:0.5;fill:#FFFFFF;" d="M85.886,360.714c-3.017,0-5.462,2.445-5.462,5.462
		s2.445,5.462,5.462,5.462s5.462-2.445,5.462-5.462S88.903,360.714,85.886,360.714z M85.167,368.36
		c-1.746,0-3.161-1.415-3.161-3.161c0-1.746,1.415-3.161,3.161-3.161s3.161,1.415,3.161,3.161
		C88.328,366.945,86.913,368.36,85.167,368.36z"/>
	<path id="XMLID_69_" style="opacity:0.5;fill:#FFFFFF;" d="M85.886,360.714c-3.017,0-5.462,2.445-5.462,5.462
		s2.445,5.462,5.462,5.462s5.462-2.445,5.462-5.462S88.903,360.714,85.886,360.714z M85.167,368.36
		c-1.746,0-3.161-1.415-3.161-3.161c0-1.746,1.415-3.161,3.161-3.161s3.161,1.415,3.161,3.161
		C88.328,366.945,86.913,368.36,85.167,368.36z"/>
	<path id="XMLID_66_" style="opacity:0.5;fill:#FFFFFF;" d="M85.167,362.038c-1.746,0-3.161,1.415-3.161,3.161
		c0,1.746,1.415,3.161,3.161,3.161s3.161-1.415,3.161-3.161C88.328,363.454,86.913,362.038,85.167,362.038z M85.198,367.813
		c-1.427,0-2.584-1.157-2.584-2.584s1.157-2.584,2.584-2.584c1.427,0,2.584,1.157,2.584,2.584S86.624,367.813,85.198,367.813z"/>
	<path id="XMLID_63_" style="opacity:0.5;fill:#FFFFFF;" d="M85.167,362.038c-1.746,0-3.161,1.415-3.161,3.161
		c0,1.746,1.415,3.161,3.161,3.161s3.161-1.415,3.161-3.161C88.328,363.454,86.913,362.038,85.167,362.038z M85.198,367.813
		c-1.427,0-2.584-1.157-2.584-2.584s1.157-2.584,2.584-2.584c1.427,0,2.584,1.157,2.584,2.584S86.624,367.813,85.198,367.813z"/>
	<path id="XMLID_60_" style="opacity:0.5;fill:#FFFFFF;" d="M85.167,362.038c-1.746,0-3.161,1.415-3.161,3.161
		c0,1.746,1.415,3.161,3.161,3.161s3.161-1.415,3.161-3.161C88.328,363.454,86.913,362.038,85.167,362.038z M85.198,367.813
		c-1.427,0-2.584-1.157-2.584-2.584s1.157-2.584,2.584-2.584c1.427,0,2.584,1.157,2.584,2.584S86.624,367.813,85.198,367.813z"/>
	<circle id="XMLID_59_" style="opacity:0.5;fill:#FFFFFF;" cx="85.198" cy="365.23" r="2.584"/>
	<circle id="XMLID_58_" style="opacity:0.5;fill:#FFFFFF;" cx="85.198" cy="365.23" r="2.584"/>
	<circle id="XMLID_57_" style="opacity:0.5;fill:#FFFFFF;" cx="85.198" cy="365.23" r="2.584"/>
	<circle id="XMLID_56_" style="opacity:0.5;fill:#FFFFFF;" cx="85.198" cy="365.23" r="2.584"/>
</g>
<g id="XMLID_78_">
	<path id="XMLID_98_" style="opacity:0.5;fill:#FFFFFF;" d="M104.703,311.726c-3.478,0-6.297,2.819-6.297,6.297
		s2.819,6.297,6.297,6.297c3.478,0,6.297-2.819,6.297-6.297S108.181,311.726,104.703,311.726z M104.764,323.231
		c-2.842,0-5.147-2.304-5.147-5.147s2.304-5.147,5.147-5.147s5.147,2.304,5.147,5.147S107.606,323.231,104.764,323.231z"/>
	<path id="XMLID_95_" style="opacity:0.5;fill:#FFFFFF;" d="M104.764,312.937c-2.842,0-5.147,2.304-5.147,5.147
		s2.304,5.147,5.147,5.147s5.147-2.304,5.147-5.147S107.606,312.937,104.764,312.937z M104.086,320.143
		c-1.645,0-2.979-1.334-2.979-2.979s1.334-2.979,2.979-2.979s2.979,1.334,2.979,2.979S105.731,320.143,104.086,320.143z"/>
	<path id="XMLID_92_" style="opacity:0.5;fill:#FFFFFF;" d="M104.764,312.937c-2.842,0-5.147,2.304-5.147,5.147
		s2.304,5.147,5.147,5.147s5.147-2.304,5.147-5.147S107.606,312.937,104.764,312.937z M104.086,320.143
		c-1.645,0-2.979-1.334-2.979-2.979s1.334-2.979,2.979-2.979s2.979,1.334,2.979,2.979S105.731,320.143,104.086,320.143z"/>
	<path id="XMLID_89_" style="opacity:0.5;fill:#FFFFFF;" d="M104.086,314.185c-1.645,0-2.979,1.334-2.979,2.979
		s1.334,2.979,2.979,2.979s2.979-1.334,2.979-2.979S105.731,314.185,104.086,314.185z M104.115,319.627
		c-1.345,0-2.434-1.09-2.434-2.434c0-1.345,1.09-2.435,2.434-2.435c1.345,0,2.434,1.09,2.434,2.435
		C106.549,318.537,105.459,319.627,104.115,319.627z"/>
	<path id="XMLID_86_" style="opacity:0.5;fill:#FFFFFF;" d="M104.086,314.185c-1.645,0-2.979,1.334-2.979,2.979
		s1.334,2.979,2.979,2.979s2.979-1.334,2.979-2.979S105.731,314.185,104.086,314.185z M104.115,319.627
		c-1.345,0-2.434-1.09-2.434-2.434c0-1.345,1.09-2.435,2.434-2.435c1.345,0,2.434,1.09,2.434,2.435
		C106.549,318.537,105.459,319.627,104.115,319.627z"/>
	<path id="XMLID_83_" style="opacity:0.5;fill:#FFFFFF;" d="M104.086,314.185c-1.645,0-2.979,1.334-2.979,2.979
		s1.334,2.979,2.979,2.979s2.979-1.334,2.979-2.979S105.731,314.185,104.086,314.185z M104.115,319.627
		c-1.345,0-2.434-1.09-2.434-2.434c0-1.345,1.09-2.435,2.434-2.435c1.345,0,2.434,1.09,2.434,2.435
		C106.549,318.537,105.459,319.627,104.115,319.627z"/>
	<circle id="XMLID_82_" style="opacity:0.5;fill:#FFFFFF;" cx="104.115" cy="317.193" r="2.434"/>
	<circle id="XMLID_81_" style="opacity:0.5;fill:#FFFFFF;" cx="104.115" cy="317.193" r="2.434"/>
	<circle id="XMLID_80_" style="opacity:0.5;fill:#FFFFFF;" cx="104.115" cy="317.193" r="2.434"/>
	<circle id="XMLID_79_" style="opacity:0.5;fill:#FFFFFF;" cx="104.115" cy="317.193" r="2.434"/>
</g>
<g id="XMLID_101_">
	<path id="XMLID_121_" style="opacity:0.5;fill:#FFFFFF;" d="M83.96,330.171c-3.478,0-6.297,2.819-6.297,6.297
		s2.819,6.297,6.297,6.297c3.478,0,6.297-2.819,6.297-6.297S87.438,330.171,83.96,330.171z M84.02,341.676
		c-2.842,0-5.147-2.304-5.147-5.147s2.304-5.147,5.147-5.147s5.147,2.304,5.147,5.147S86.863,341.676,84.02,341.676z"/>
	<path id="XMLID_118_" style="opacity:0.5;fill:#FFFFFF;" d="M84.02,331.382c-2.842,0-5.147,2.304-5.147,5.147
		s2.304,5.147,5.147,5.147s5.147-2.304,5.147-5.147S86.863,331.382,84.02,331.382z M83.343,338.588
		c-1.645,0-2.979-1.334-2.979-2.979c0-1.645,1.334-2.979,2.979-2.979s2.979,1.334,2.979,2.979
		C86.321,337.254,84.988,338.588,83.343,338.588z"/>
	<path id="XMLID_115_" style="opacity:0.5;fill:#FFFFFF;" d="M84.02,331.382c-2.842,0-5.147,2.304-5.147,5.147
		s2.304,5.147,5.147,5.147s5.147-2.304,5.147-5.147S86.863,331.382,84.02,331.382z M83.343,338.588
		c-1.645,0-2.979-1.334-2.979-2.979c0-1.645,1.334-2.979,2.979-2.979s2.979,1.334,2.979,2.979
		C86.321,337.254,84.988,338.588,83.343,338.588z"/>
	<path id="XMLID_112_" style="opacity:0.5;fill:#FFFFFF;" d="M83.343,332.631c-1.645,0-2.979,1.334-2.979,2.979
		c0,1.645,1.334,2.979,2.979,2.979s2.979-1.334,2.979-2.979C86.321,333.964,84.988,332.631,83.343,332.631z M83.371,338.072
		c-1.345,0-2.434-1.09-2.434-2.434c0-1.345,1.09-2.434,2.434-2.434s2.434,1.09,2.434,2.434
		C85.806,336.982,84.716,338.072,83.371,338.072z"/>
	<path id="XMLID_109_" style="opacity:0.5;fill:#FFFFFF;" d="M83.343,332.631c-1.645,0-2.979,1.334-2.979,2.979
		c0,1.645,1.334,2.979,2.979,2.979s2.979-1.334,2.979-2.979C86.321,333.964,84.988,332.631,83.343,332.631z M83.371,338.072
		c-1.345,0-2.434-1.09-2.434-2.434c0-1.345,1.09-2.434,2.434-2.434s2.434,1.09,2.434,2.434
		C85.806,336.982,84.716,338.072,83.371,338.072z"/>
	<path id="XMLID_106_" style="opacity:0.5;fill:#FFFFFF;" d="M83.343,332.631c-1.645,0-2.979,1.334-2.979,2.979
		c0,1.645,1.334,2.979,2.979,2.979s2.979-1.334,2.979-2.979C86.321,333.964,84.988,332.631,83.343,332.631z M83.371,338.072
		c-1.345,0-2.434-1.09-2.434-2.434c0-1.345,1.09-2.434,2.434-2.434s2.434,1.09,2.434,2.434
		C85.806,336.982,84.716,338.072,83.371,338.072z"/>
	<circle id="XMLID_105_" style="opacity:0.5;fill:#FFFFFF;" cx="83.371" cy="335.638" r="2.434"/>
	<circle id="XMLID_104_" style="opacity:0.5;fill:#FFFFFF;" cx="83.371" cy="335.638" r="2.434"/>
	<circle id="XMLID_103_" style="opacity:0.5;fill:#FFFFFF;" cx="83.371" cy="335.638" r="2.434"/>
	<circle id="XMLID_102_" style="opacity:0.5;fill:#FFFFFF;" cx="83.371" cy="335.638" r="2.434"/>
</g>
<g id="XMLID_124_">
	<path id="XMLID_144_" style="opacity:0.5;fill:#FFFFFF;" d="M85.167,286.65c-2.853,0-5.166,2.313-5.166,5.166
		c0,2.853,2.313,5.166,5.166,5.166c2.853,0,5.166-2.313,5.166-5.166C90.333,288.963,88.02,286.65,85.167,286.65z M85.217,296.088
		c-2.332,0-4.222-1.89-4.222-4.222s1.89-4.222,4.222-4.222c2.332,0,4.222,1.89,4.222,4.222S87.549,296.088,85.217,296.088z"/>
	<path id="XMLID_141_" style="opacity:0.5;fill:#FFFFFF;" d="M85.217,287.643c-2.332,0-4.222,1.89-4.222,4.222
		s1.89,4.222,4.222,4.222c2.332,0,4.222-1.89,4.222-4.222S87.549,287.643,85.217,287.643z M84.661,293.555
		c-1.35,0-2.444-1.094-2.444-2.444c0-1.35,1.094-2.444,2.444-2.444c1.35,0,2.444,1.094,2.444,2.444
		C87.104,292.461,86.01,293.555,84.661,293.555z"/>
	<path id="XMLID_138_" style="opacity:0.5;fill:#FFFFFF;" d="M85.217,287.643c-2.332,0-4.222,1.89-4.222,4.222
		s1.89,4.222,4.222,4.222c2.332,0,4.222-1.89,4.222-4.222S87.549,287.643,85.217,287.643z M84.661,293.555
		c-1.35,0-2.444-1.094-2.444-2.444c0-1.35,1.094-2.444,2.444-2.444c1.35,0,2.444,1.094,2.444,2.444
		C87.104,292.461,86.01,293.555,84.661,293.555z"/>
	<path id="XMLID_135_" style="opacity:0.5;fill:#FFFFFF;" d="M84.661,288.667c-1.35,0-2.444,1.094-2.444,2.444
		c0,1.35,1.094,2.444,2.444,2.444c1.35,0,2.444-1.094,2.444-2.444C87.104,289.761,86.01,288.667,84.661,288.667z M84.684,293.132
		c-1.103,0-1.997-0.894-1.997-1.997c0-1.103,0.894-1.997,1.997-1.997c1.103,0,1.997,0.894,1.997,1.997
		C86.682,292.238,85.787,293.132,84.684,293.132z"/>
	<path id="XMLID_132_" style="opacity:0.5;fill:#FFFFFF;" d="M84.661,288.667c-1.35,0-2.444,1.094-2.444,2.444
		c0,1.35,1.094,2.444,2.444,2.444c1.35,0,2.444-1.094,2.444-2.444C87.104,289.761,86.01,288.667,84.661,288.667z M84.684,293.132
		c-1.103,0-1.997-0.894-1.997-1.997c0-1.103,0.894-1.997,1.997-1.997c1.103,0,1.997,0.894,1.997,1.997
		C86.682,292.238,85.787,293.132,84.684,293.132z"/>
	<path id="XMLID_129_" style="opacity:0.5;fill:#FFFFFF;" d="M84.661,288.667c-1.35,0-2.444,1.094-2.444,2.444
		c0,1.35,1.094,2.444,2.444,2.444c1.35,0,2.444-1.094,2.444-2.444C87.104,289.761,86.01,288.667,84.661,288.667z M84.684,293.132
		c-1.103,0-1.997-0.894-1.997-1.997c0-1.103,0.894-1.997,1.997-1.997c1.103,0,1.997,0.894,1.997,1.997
		C86.682,292.238,85.787,293.132,84.684,293.132z"/>
	<circle id="XMLID_128_" style="opacity:0.5;fill:#FFFFFF;" cx="84.684" cy="291.135" r="1.997"/>
	<circle id="XMLID_127_" style="opacity:0.5;fill:#FFFFFF;" cx="84.684" cy="291.135" r="1.997"/>
	<circle id="XMLID_126_" style="opacity:0.5;fill:#FFFFFF;" cx="84.684" cy="291.135" r="1.997"/>
	<circle id="XMLID_125_" style="opacity:0.5;fill:#FFFFFF;" cx="84.684" cy="291.135" r="1.997"/>
</g>
<g id="XMLID_147_">
	<path id="XMLID_167_" style="opacity:0.5;fill:#FFFFFF;" d="M98.385,274.75c-3.901,0-7.064,3.163-7.064,7.064
		c0,3.901,3.163,7.064,7.064,7.064c3.901,0,7.064-3.163,7.064-7.064C105.45,277.912,102.287,274.75,98.385,274.75z M98.453,287.655
		c-3.189,0-5.774-2.585-5.774-5.774c0-3.189,2.585-5.774,5.774-5.774c3.189,0,5.774,2.585,5.774,5.774
		C104.227,285.07,101.642,287.655,98.453,287.655z"/>
	<path id="XMLID_164_" style="opacity:0.5;fill:#FFFFFF;" d="M98.453,276.108c-3.189,0-5.774,2.585-5.774,5.774
		c0,3.189,2.585,5.774,5.774,5.774c3.189,0,5.774-2.585,5.774-5.774C104.227,278.693,101.642,276.108,98.453,276.108z
		 M97.693,284.191c-1.845,0-3.341-1.496-3.341-3.341s1.496-3.341,3.341-3.341s3.341,1.496,3.341,3.341
		S99.538,284.191,97.693,284.191z"/>
	<path id="XMLID_161_" style="opacity:0.5;fill:#FFFFFF;" d="M98.453,276.108c-3.189,0-5.774,2.585-5.774,5.774
		c0,3.189,2.585,5.774,5.774,5.774c3.189,0,5.774-2.585,5.774-5.774C104.227,278.693,101.642,276.108,98.453,276.108z
		 M97.693,284.191c-1.845,0-3.341-1.496-3.341-3.341s1.496-3.341,3.341-3.341s3.341,1.496,3.341,3.341
		S99.538,284.191,97.693,284.191z"/>
	<path id="XMLID_158_" style="opacity:0.5;fill:#FFFFFF;" d="M97.693,277.508c-1.845,0-3.341,1.496-3.341,3.341
		s1.496,3.341,3.341,3.341s3.341-1.496,3.341-3.341S99.538,277.508,97.693,277.508z M97.725,283.613
		c-1.508,0-2.731-1.223-2.731-2.731c0-1.508,1.223-2.731,2.731-2.731c1.508,0,2.731,1.223,2.731,2.731
		C100.456,282.39,99.233,283.613,97.725,283.613z"/>
	<path id="XMLID_155_" style="opacity:0.5;fill:#FFFFFF;" d="M97.693,277.508c-1.845,0-3.341,1.496-3.341,3.341
		s1.496,3.341,3.341,3.341s3.341-1.496,3.341-3.341S99.538,277.508,97.693,277.508z M97.725,283.613
		c-1.508,0-2.731-1.223-2.731-2.731c0-1.508,1.223-2.731,2.731-2.731c1.508,0,2.731,1.223,2.731,2.731
		C100.456,282.39,99.233,283.613,97.725,283.613z"/>
	<path id="XMLID_152_" style="opacity:0.5;fill:#FFFFFF;" d="M97.693,277.508c-1.845,0-3.341,1.496-3.341,3.341
		s1.496,3.341,3.341,3.341s3.341-1.496,3.341-3.341S99.538,277.508,97.693,277.508z M97.725,283.613
		c-1.508,0-2.731-1.223-2.731-2.731c0-1.508,1.223-2.731,2.731-2.731c1.508,0,2.731,1.223,2.731,2.731
		C100.456,282.39,99.233,283.613,97.725,283.613z"/>
	<circle id="XMLID_151_" style="opacity:0.5;fill:#FFFFFF;" cx="97.725" cy="280.882" r="2.731"/>
	<circle id="XMLID_150_" style="opacity:0.5;fill:#FFFFFF;" cx="97.725" cy="280.882" r="2.731"/>
	<circle id="XMLID_149_" style="opacity:0.5;fill:#FFFFFF;" cx="97.725" cy="280.882" r="2.731"/>
	<circle id="XMLID_148_" style="opacity:0.5;fill:#FFFFFF;" cx="97.725" cy="280.882" r="2.731"/>
</g>
<g>
</g>
<g>
</g>
<g>
</g>
<g>
</g>
<g>
</g>
</svg>
